<svg xmlns="http://www.w3.org/2000/svg" viewBox="0 0 1440 320"><path fill="#314d92" fill-opacity="1" d="M0,192L30,202.7C60,213,120,235,180,218.7C240,203,300,149,360,138.7C420,128,480,160,540,181.3C600,203,660,213,720,202.7C780,192,840,160,900,128C960,96,1020,64,1080,64C1140,64,1200,96,1260,96C1320,96,1380,64,1410,48L1440,32L1440,0L1410,0C1380,0,1320,0,1260,0C1200,0,1140,0,1080,0C1020,0,960,0,900,0C840,0,780,0,720,0C660,0,600,0,540,0C480,0,420,0,360,0C300,0,240,0,180,0C120,0,60,0,30,0L0,0Z"></path></svg>